# xmcd
# 
# Track frame offsets:
#     150
#     12890
#     28362
#     43567
#     57965
#     74460
#     90182
#     103932
#     121262
#     137780
# 
# Disc length: 2154
# 
# Revision: 3
# Processed by: cddbd v1.5.2PL0 Copyright (c) Steve Scherf et al.
# Submitted via: fre:ac v1.0.17
# 
DISCID=8508680a
DTITLE=Various Artist - New Country - Volume 3 - Number 2
DYEAR=1996
DGENRE=Country
TTITLE0=Jesse Dayton - Kissing Abilene Goodbye
TTITLE1=Chely Wright - Alligator Purse
TTITLE2=Buddy Miller - My Love Will Follow You
TTITLE3=Highway 101 - Where'd You Get Your Cheatin' From
TTITLE4=Philip Claypool - The Strength Of A Woman
TTITLE5=David Olney - In Your Eyes
TTITLE6=Chesapeake - One Way Track
TTITLE7=Old 97's - Victoria
TTITLE8=Stevie Ray Vaughan and Double Trouble - Pride And Joy
TTITLE9=Dan Baird - Cumberland River
EXTD=
EXTT0=
EXTT1=
EXTT2=
EXTT3=
EXTT4=
EXTT5=
EXTT6=
EXTT7=
EXTT8=
EXTT9=
PLAYORDER=
